<?xml version="1.0" encoding="UTF-8"?>
<!DOCTYPE svg PUBLIC "-//W3C//DTD SVG 1.1//EN" "http://www.w3.org/Graphics/SVG/1.1/DTD/svg11.dtd">
<!-- Creator: CorelDRAW -->
<svg xmlns="http://www.w3.org/2000/svg" xml:space="preserve" width="841mm" height="1189mm" version="1.1" style="shape-rendering:geometricPrecision; text-rendering:geometricPrecision; image-rendering:optimizeQuality; fill-rule:evenodd; clip-rule:evenodd"
viewBox="0 0 84100 118900"
 xmlns:xlink="http://www.w3.org/1999/xlink"
 xmlns:xodm="http://www.corel.com/coreldraw/odm/2003">
 <defs>
  <style type="text/css">
   <![CDATA[
    .str0 {stroke:#29A2A7;stroke-width:7.62;stroke-miterlimit:22.9256}
    .fil1 {fill:#29A2A7}
    .fil0 {fill:#29A2A7;fill-rule:nonzero}
   ]]>
  </style>
 </defs>
 <g id="Camada_x0020_1">
  <metadata id="CorelCorpID_0Corel-Layer"/>
  <path class="fil0 str0" d="M32936.47 110137.48l0 -7051.93 1349.32 0 0 7051.93 -1349.32 0zm2145.46 -5111.66l748.53 0 0 -385.76c0,-430.07 45.96,-751.81 137.88,-963.56 91.93,-213.4 261,-385.76 507.23,-518.72 247.87,-132.96 559.76,-200.26 937.3,-200.26 385.76,0 764.95,57.45 1135.93,172.35l-172.36 938.95c-219.96,-50.89 -431.72,-77.15 -635.27,-77.15 -200.26,0 -343.07,45.96 -430.07,137.88 -87,91.93 -131.32,269.21 -131.32,531.85l0 364.42 1014.45 0 0 1063.7 -1014.45 0 0 4047.96 -1349.32 0 0 -4047.96 -748.53 0 0 -1063.7zm4875.29 1575.85l-1221.29 -216.68c137.89,-499.02 375.91,-868.36 712.42,-1108.02 336.51,-239.66 837.17,-359.49 1500.34,-359.49 602.43,0 1052.21,70.58 1347.68,213.39 293.83,142.82 502.3,323.38 622.13,543.34 119.83,219.97 180.57,622.14 180.57,1209.8l-19.7 1575.85c0,448.13 21.34,779.71 64.02,993.11 42.68,213.4 123.11,441.57 241.3,684.51l-1339.47 0c-34.47,-88.64 -78.8,-219.96 -129.68,-393.96 -21.34,-80.44 -37.76,-132.96 -47.61,-157.59 -229.81,226.53 -476.03,395.61 -738.68,508.87 -262.64,113.26 -541.69,170.72 -838.81,170.72 -523.64,0 -937.3,-142.81 -1239.34,-428.44 -302.03,-283.98 -453.05,-645.11 -453.05,-1081.75 0,-287.27 68.94,-544.98 206.83,-771.51 137.88,-224.89 329.94,-398.89 579.45,-518.72 247.87,-119.83 605.72,-224.89 1073.55,-315.17 630.34,-118.19 1068.62,-229.81 1311.56,-331.58l0 -136.25c0,-262.64 -64.02,-449.77 -192.05,-563.04 -129.68,-111.62 -372.63,-167.43 -728.83,-167.43 -241.31,0 -428.44,47.6 -563.04,144.45 -136.25,95.21 -244.59,264.29 -328.3,505.59zm1812.22 1093.24c-172.36,57.46 -446.49,126.4 -822.39,206.83 -374.27,80.44 -620.49,159.23 -735.4,234.74 -175.64,126.4 -264.28,283.98 -264.28,476.04 0,190.41 70.58,352.92 211.75,490.81 141.17,137.89 320.1,206.83 538.42,206.83 242.94,0 476.04,-80.44 697.64,-239.66 162.51,-123.11 270.85,-270.85 321.74,-448.13 34.47,-114.91 52.52,-334.87 52.52,-658.25l0 -269.21zm7112.67 -1152.34l-1329.63 236.38c-44.32,-264.28 -146.09,-462.91 -305.32,-597.51 -159.22,-132.96 -364.41,-200.26 -617.2,-200.26 -336.51,0 -605.72,116.54 -805.99,349.64 -200.26,233.09 -300.39,622.13 -300.39,1168.75 0,607.36 101.77,1035.8 305.32,1286.95 203.55,251.15 476.04,375.9 817.47,375.9 256.08,0 466.19,-73.86 628.7,-219.96 164.15,-146.09 279.06,-397.24 346.36,-755.09l1329.62 226.52c-137.89,610.65 -402.17,1071.91 -792.85,1383.8 -390.68,311.88 -914.32,467.83 -1572.57,467.83 -745.24,0 -1341.11,-236.38 -1784.32,-707.49 -444.85,-472.76 -666.45,-1126.08 -666.45,-1961.61 0,-845.38 223.25,-1501.98 668.1,-1973.09 444.84,-471.12 1047.28,-705.85 1807.3,-705.85 620.49,0 1114.58,134.6 1482.28,402.17 366.06,267.56 628.7,674.66 789.57,1222.92zm2030.55 59.1l-1221.29 -216.68c137.89,-499.02 375.91,-868.36 712.42,-1108.02 336.51,-239.66 837.17,-359.49 1500.34,-359.49 602.43,0 1052.21,70.58 1347.68,213.39 293.83,142.82 502.3,323.38 622.13,543.34 119.83,219.97 180.57,622.14 180.57,1209.8l-19.7 1575.85c0,448.13 21.34,779.71 64.02,993.11 42.68,213.4 123.11,441.57 241.3,684.51l-1339.47 0c-34.47,-88.64 -78.8,-219.96 -129.68,-393.96 -21.34,-80.44 -37.76,-132.96 -47.61,-157.59 -229.81,226.53 -476.03,395.61 -738.68,508.87 -262.64,113.26 -541.69,170.72 -838.81,170.72 -523.64,0 -937.3,-142.81 -1239.34,-428.44 -302.03,-283.98 -453.05,-645.11 -453.05,-1081.75 0,-287.27 68.94,-544.98 206.83,-771.51 137.88,-224.89 329.94,-398.89 579.45,-518.72 247.87,-119.83 605.72,-224.89 1073.55,-315.17 630.34,-118.19 1068.62,-229.81 1311.56,-331.58l0 -136.25c0,-262.64 -64.02,-449.77 -192.05,-563.04 -129.68,-111.62 -372.63,-167.43 -728.83,-167.43 -241.31,0 -428.44,47.6 -563.04,144.45 -136.25,95.21 -244.59,264.29 -328.3,505.59zm1812.22 1093.24c-172.36,57.46 -446.49,126.4 -822.39,206.83 -374.27,80.44 -620.49,159.23 -735.4,234.74 -175.64,126.4 -264.28,283.98 -264.28,476.04 0,190.41 70.58,352.92 211.75,490.81 141.17,137.89 320.1,206.83 538.42,206.83 242.94,0 476.04,-80.44 697.64,-239.66 162.51,-123.11 270.85,-270.85 321.74,-448.13 34.47,-114.91 52.52,-334.87 52.52,-658.25l0 -269.21zm3951.12 2442.57l-1349.32 0 0 -5111.66 1250.83 0 0 725.55c215.04,-343.08 408.73,-567.97 581.09,-674.67 172.36,-106.69 367.7,-159.22 586.02,-159.22 308.61,0 605.72,85.36 891.34,254.43l-418.58 1178.61c-228.17,-147.74 -439.93,-221.61 -635.27,-221.61 -190.41,0 -351.28,52.53 -482.6,155.95 -131.32,105.05 -234.74,292.18 -310.25,564.68 -75.51,272.49 -113.26,843.73 -113.26,1712.09l0 1575.85zm7230.85 0l-1250.83 0 0 -750.17c-208.47,292.19 -456.34,510.51 -740.32,658.25 -283.98,146.09 -571.24,219.96 -860.15,219.96 -589.3,0 -1093.24,-236.38 -1513.47,-710.78 -418.59,-474.39 -628.7,-1134.28 -628.7,-1982.94 0,-866.72 203.55,-1526.6 612.28,-1978.02 408.74,-451.41 924.17,-676.3 1547.95,-676.3 571.24,0 1066.98,238.02 1483.92,712.41l0 -2544.34 1349.32 0 0 7051.93zm-3604.75 -2654.32c0,546.62 75.51,942.23 224.89,1186.81 218.32,354.57 522,531.85 912.68,531.85 310.24,0 574.52,-132.96 791.2,-398.89 218.32,-265.92 326.66,-661.53 326.66,-1190.09 0,-589.3 -105.05,-1012.81 -316.81,-1272.17 -211.75,-259.36 -480.96,-389.04 -810.9,-389.04 -320.1,0 -587.66,128.04 -804.34,384.11 -215.04,256.08 -323.38,638.55 -323.38,1147.42zm4450.13 1216.36l1359.17 -206.83c57.45,261 174,459.62 351.28,594.22 175.64,136.25 423.51,203.55 740.32,203.55 349.64,0 612.29,-64.02 789.57,-192.06 118.19,-90.28 177.28,-211.75 177.28,-362.77 0,-101.77 -32.83,-187.13 -96.85,-254.43 -67.3,-64.02 -218.32,-124.76 -451.41,-178.93 -1091.61,-241.3 -1782.68,-461.26 -2074.87,-659.89 -405.45,-277.41 -607.36,-661.52 -607.36,-1152.34 0,-444.84 175.64,-817.47 525.28,-1119.51 349.65,-302.03 891.34,-453.05 1625.1,-453.05 699.28,0 1219.64,114.9 1559.43,343.07 339.8,229.82 574.53,567.97 702.57,1016.1l-1270.53 236.38c-54.17,-200.27 -159.23,-354.57 -311.89,-461.27 -152.66,-106.7 -370.98,-159.22 -654.96,-159.22 -357.85,0 -613.92,49.24 -769.87,149.37 -103.41,70.59 -154.3,162.51 -154.3,274.13 0,96.85 44.32,178.93 134.6,246.23 123.12,90.28 544.99,216.68 1267.25,380.83 722.27,164.15 1226.21,364.42 1511.83,602.44 283.98,239.66 425.15,576.17 425.15,1006.24 0,467.83 -195.34,871.64 -587.66,1208.15 -390.68,336.51 -970.13,505.59 -1738.36,505.59 -696,0 -1247.54,-141.17 -1654.64,-421.87 -405.45,-280.7 -671.38,-661.53 -796.13,-1144.13z"/>
  <g id="_2529389988928">
   <path class="fil1" d="M25562.47 100253.58l-685.72 1508.51 0 0 0 137.08 -137.08 411.56 0 0 -3703.07 7954.79c3154.43,0 4251.71,-411.56 7131.66,-1783l822.8 1645.92 2742.87 0 -1371.44 -2605.79c2742.88,-1508.52 4937.43,-4251.72 4251.72,-5760.23 -822.8,-1783 -3840.15,-1783 -7269.07,-822.8l274.16 411.56c2331.63,-411.56 3977.23,-274.15 4251.71,960.21 274.16,2331.63 -5211.59,4525.86 -7131.66,5074.5l1508.51 -3154.43 822.8 1783c822.79,-274.16 1508.51,-548.64 2194.56,-960.2l-1783 -3428.59 -137.08 -274.16 -274.16 -411.56 -137.08 -137.08 0 0 -274.15 -548.64 -1097.28 0 0 -0.65zm-1096.96 1782.67c-685.71,274.16 -1371.43,548.64 -1920.07,960.2 685.72,-274.15 1234.36,-548.64 1920.07,-685.72l137.08 -274.15 -137.08 -0.33z"/>
   <path class="fil1" d="M27757.03 101899.17c3017.35,-548.64 4388.79,960.2 2057.15,2880.28 137.08,-1645.92 -274.16,-2468.72 -2057.15,-2880.28z"/>
  </g>
 </g>
</svg>
