<?xml version="1.0" encoding="UTF-8"?>
<!DOCTYPE svg PUBLIC "-//W3C//DTD SVG 1.1//EN" "http://www.w3.org/Graphics/SVG/1.1/DTD/svg11.dtd">
<!-- Creator: CorelDRAW -->
<svg xmlns="http://www.w3.org/2000/svg" xml:space="preserve" width="484.962mm" height="100.157mm" version="1.1" style="shape-rendering:geometricPrecision; text-rendering:geometricPrecision; image-rendering:optimizeQuality; fill-rule:evenodd; clip-rule:evenodd"
viewBox="0 0 55961.54 11557.53"
 xmlns:xlink="http://www.w3.org/1999/xlink"
 xmlns:xodm="http://www.corel.com/coreldraw/odm/2003">
 <defs>
  <style type="text/css">
   <![CDATA[
    .str0 {stroke:#29A2A7;stroke-width:8.79;stroke-miterlimit:22.9256}
    .fil1 {fill:#29A2A7}
    .fil0 {fill:#29A2A7;fill-rule:nonzero}
   ]]>
  </style>
 </defs>
 <g id="Camada_x0020_1">
  <metadata id="CorelCorpID_0Corel-Layer"/>
  <path class="fil0 str0" d="M13731.69 11405.39l0 -8137.47 1557.03 0 0 8137.47 -1557.03 0zm2475.72 -5898.53l863.76 0 0 -445.14c0,-496.27 53.03,-867.54 159.1,-1111.89 106.08,-246.25 301.18,-445.14 585.31,-598.57 286.03,-153.43 645.93,-231.09 1081.58,-231.09 445.14,0 882.7,66.29 1310.79,198.88l-198.89 1083.49c-253.82,-58.72 -498.18,-89.03 -733.06,-89.03 -231.09,0 -395.88,53.03 -496.27,159.1 -100.39,106.08 -151.53,310.65 -151.53,613.72l0 420.52 1170.61 0 0 1227.44 -1170.61 0 0 4671.09 -1557.03 0 0 -4671.09 -863.76 0 0 -1227.44zm5625.77 1818.43l-1409.29 -250.03c159.12,-575.84 433.78,-1002.03 822.09,-1278.58 388.31,-276.55 966.04,-414.83 1731.3,-414.83 695.17,0 1214.18,81.44 1555.14,246.24 339.06,164.81 579.62,373.16 717.9,626.98 138.28,253.83 208.37,717.91 208.37,1396.03l-22.73 1818.43c0,517.11 24.62,899.74 73.87,1145.99 49.25,246.25 142.06,509.54 278.44,789.88l-1545.66 0c-39.78,-102.28 -90.93,-253.82 -149.64,-454.6 -24.62,-92.82 -43.57,-153.43 -54.94,-181.85 -265.19,261.4 -549.31,456.51 -852.39,587.2 -303.07,130.69 -625.08,197 -967.93,197 -604.25,0 -1081.58,-164.79 -1430.12,-494.39 -348.52,-327.69 -522.79,-744.42 -522.79,-1248.27 0,-331.49 79.55,-628.87 238.67,-890.27 159.1,-259.51 380.73,-460.29 668.65,-598.57 286.03,-138.28 698.96,-259.51 1238.81,-363.69 727.37,-136.38 1233.12,-265.19 1513.46,-382.62l0 -157.22c0,-303.07 -73.87,-519.01 -221.61,-649.71 -149.64,-128.8 -429.99,-193.2 -841.02,-193.2 -278.46,0 -494.39,54.93 -649.71,166.69 -157.22,109.87 -282.24,304.97 -378.84,583.42zm2091.19 1261.53c-198.89,66.31 -515.22,145.86 -948.99,238.67 -431.88,92.82 -716.01,183.74 -848.6,270.87 -202.68,145.86 -304.96,327.69 -304.96,549.32 0,219.72 81.44,407.25 244.35,566.36 162.9,159.12 369.37,238.67 621.3,238.67 280.34,0 549.32,-92.82 805.03,-276.55 187.53,-142.06 312.54,-312.54 371.27,-517.11 39.78,-132.6 60.6,-386.42 60.6,-759.58l0 -310.65zm8207.56 -1329.73l-1534.31 272.77c-51.14,-304.96 -168.58,-534.17 -352.32,-689.49 -183.73,-153.43 -420.51,-231.09 -712.21,-231.09 -388.31,0 -698.96,134.48 -930.06,403.46 -231.09,268.97 -346.63,717.9 -346.63,1348.66 0,700.85 117.44,1195.25 352.32,1485.06 234.88,289.81 549.32,433.76 943.31,433.76 295.5,0 537.95,-85.23 725.48,-253.82 189.42,-168.58 322.02,-458.39 399.68,-871.33l1534.3 261.39c-159.12,704.65 -464.08,1236.92 -914.9,1596.82 -450.82,359.89 -1055.07,539.85 -1814.64,539.85 -859.96,0 -1547.55,-272.77 -2058.99,-816.4 -513.33,-545.53 -769.04,-1299.42 -769.04,-2263.57 0,-975.51 257.62,-1733.19 770.94,-2276.82 513.32,-543.64 1208.49,-814.51 2085.51,-814.51 716.01,0 1286.15,155.32 1710.46,464.08 422.41,308.75 725.48,778.51 911.11,1411.17zm2343.12 68.2l-1409.29 -250.03c159.12,-575.84 433.78,-1002.03 822.09,-1278.58 388.31,-276.55 966.04,-414.83 1731.3,-414.83 695.17,0 1214.18,81.44 1555.14,246.24 339.06,164.81 579.62,373.16 717.9,626.98 138.28,253.83 208.37,717.91 208.37,1396.03l-22.73 1818.43c0,517.11 24.62,899.74 73.87,1145.99 49.25,246.25 142.06,509.54 278.44,789.88l-1545.66 0c-39.78,-102.28 -90.93,-253.82 -149.64,-454.6 -24.62,-92.82 -43.57,-153.43 -54.94,-181.85 -265.19,261.4 -549.31,456.51 -852.39,587.2 -303.07,130.69 -625.08,197 -967.93,197 -604.25,0 -1081.58,-164.79 -1430.12,-494.39 -348.52,-327.69 -522.79,-744.42 -522.79,-1248.27 0,-331.49 79.55,-628.87 238.67,-890.27 159.1,-259.51 380.73,-460.29 668.65,-598.57 286.03,-138.28 698.96,-259.51 1238.81,-363.69 727.37,-136.38 1233.12,-265.19 1513.46,-382.62l0 -157.22c0,-303.07 -73.87,-519.01 -221.61,-649.71 -149.64,-128.8 -429.99,-193.2 -841.02,-193.2 -278.46,0 -494.39,54.93 -649.71,166.69 -157.22,109.87 -282.24,304.97 -378.84,583.42zm2091.19 1261.53c-198.89,66.31 -515.22,145.86 -948.99,238.67 -431.88,92.82 -716.01,183.74 -848.6,270.87 -202.68,145.86 -304.96,327.69 -304.96,549.32 0,219.72 81.44,407.25 244.35,566.36 162.9,159.12 369.37,238.67 621.3,238.67 280.34,0 549.32,-92.82 805.03,-276.55 187.53,-142.06 312.54,-312.54 371.27,-517.11 39.78,-132.6 60.6,-386.42 60.6,-759.58l0 -310.65zm4559.34 2818.57l-1557.03 0 0 -5898.53 1443.38 0 0 837.24c248.14,-395.89 471.65,-655.4 670.54,-778.53 198.89,-123.11 424.3,-183.73 676.23,-183.73 356.12,0 698.96,98.5 1028.55,293.6l-483.01 1360.04c-263.29,-170.48 -507.65,-255.72 -733.06,-255.72 -219.72,0 -405.35,60.62 -556.89,179.96 -151.53,121.22 -270.87,337.16 -358.01,651.6 -87.13,314.44 -130.69,973.61 -130.69,1975.64l0 1818.43zm8343.94 0l-1443.38 0 0 -865.65c-240.56,337.17 -526.59,589.1 -854.28,759.58 -327.69,168.58 -659.17,253.82 -992.56,253.82 -680.01,0 -1261.53,-272.77 -1746.45,-820.19 -483.03,-547.42 -725.48,-1308.89 -725.48,-2288.19 0,-1000.14 234.88,-1761.6 706.53,-2282.51 471.66,-520.9 1066.43,-780.41 1786.23,-780.41 659.17,0 1231.23,274.66 1712.35,822.08l0 -2936.01 1557.03 0 0 8137.47zm-4159.65 -3062.91c0,630.76 87.13,1087.27 259.51,1369.5 251.93,409.15 602.35,613.72 1053.17,613.72 358,0 662.96,-153.43 912.99,-460.29 251.93,-306.85 376.94,-763.36 376.94,-1373.29 0,-680.01 -121.22,-1168.72 -365.58,-1468 -244.35,-299.28 -555,-448.93 -935.73,-448.93 -369.37,0 -678.12,147.75 -928.16,443.24 -248.14,295.5 -373.16,736.85 -373.16,1324.05zm5135.16 1403.6l1568.39 -238.67c66.29,301.18 200.78,530.37 405.35,685.69 202.68,157.22 488.7,234.88 854.28,234.88 403.46,0 706.54,-73.87 911.11,-221.62 136.38,-104.18 204.57,-244.35 204.57,-418.61 0,-117.44 -37.88,-215.94 -111.76,-293.6 -77.66,-73.87 -251.93,-143.97 -520.9,-206.47 -1259.65,-278.44 -2057.1,-532.26 -2394.27,-761.47 -467.86,-320.11 -700.85,-763.35 -700.85,-1329.73 0,-513.32 202.68,-943.31 606.14,-1291.84 403.47,-348.52 1028.55,-522.79 1875.26,-522.79 806.92,0 1407.39,132.59 1799.48,395.88 392.11,265.2 662.97,655.4 810.72,1172.51l-1466.11 272.77c-62.51,-231.1 -183.74,-409.15 -359.9,-532.28 -176.16,-123.12 -428.09,-183.73 -755.78,-183.73 -412.94,0 -708.42,56.82 -888.38,172.36 -119.33,81.46 -178.05,187.53 -178.05,316.33 0,111.76 51.14,206.47 155.32,284.13 142.07,104.18 628.88,250.03 1462.33,439.45 833.45,189.42 1414.97,420.52 1744.55,695.18 327.69,276.55 490.6,664.86 490.6,1161.14 0,539.85 -225.41,1005.82 -678.12,1394.13 -450.82,388.31 -1119.47,583.42 -2005.96,583.42 -803.14,0 -1439.58,-162.9 -1909.35,-486.81 -467.86,-323.91 -774.73,-763.36 -918.68,-1320.25z"/>
  <g id="_2529390491696">
   <path class="fil1" d="M5222.56 0l-791.28 1740.72 0 0 0 158.18 -158.18 474.91 0 0 -4273.11 9179.32c3640.01,0 4906.2,-474.91 8229.48,-2057.47l949.46 1899.29 3165.1 0 -1582.55 -3006.91c3165.11,-1740.74 5697.48,-4906.21 4906.21,-6646.94 -949.46,-2057.47 -4431.29,-2057.47 -8388.04,-949.46l316.36 474.91c2690.55,-474.91 4589.47,-316.35 4906.2,1108.02 316.36,2690.55 -6013.84,5222.55 -8229.48,5855.65l1740.72 -3640.01 949.46 2057.47c949.45,-316.36 1740.72,-633.1 2532.38,-1108.01l-2057.47 -3956.37 -158.18 -316.36 -316.36 -474.91 -158.18 -158.18 0 0 -316.35 -633.1 -1266.19 0 0 -0.75zm-1265.82 2057.09c-791.27,316.36 -1582.54,633.1 -2215.64,1108.01 791.28,-316.35 1424.37,-633.1 2215.64,-791.28l158.18 -316.35 -158.18 -0.38z"/>
   <path class="fil1" d="M7754.94 1898.91c3481.83,-633.1 5064.38,1108.01 2373.82,3323.66 158.18,-1899.29 -316.36,-2848.74 -2373.82,-3323.66z"/>
  </g>
 </g>
</svg>
