<?xml version="1.0" encoding="UTF-8"?>
<!DOCTYPE svg PUBLIC "-//W3C//DTD SVG 1.1//EN" "http://www.w3.org/Graphics/SVG/1.1/DTD/svg11.dtd">
<!-- Creator: CorelDRAW -->
<svg xmlns="http://www.w3.org/2000/svg" xml:space="preserve" width="137.043mm" height="100.119mm" version="1.1" style="shape-rendering:geometricPrecision; text-rendering:geometricPrecision; image-rendering:optimizeQuality; fill-rule:evenodd; clip-rule:evenodd"
viewBox="0 0 13630.72 9958.19"
 xmlns:xlink="http://www.w3.org/1999/xlink"
 xmlns:xodm="http://www.corel.com/coreldraw/odm/2003">
 <defs>
  <style type="text/css">
   <![CDATA[
    .fil0 {fill:#29A2A7}
   ]]>
  </style>
 </defs>
 <g id="Camada_x0020_1">
  <metadata id="CorelCorpID_0Corel-Layer"/>
  <g id="_2493454971024">
   <path class="fil0" d="M4501.57 0l-682.04 1500.41 0 0 0 136.34 -136.34 409.35 0 0 -3683.19 7912.08c3137.5,0 4228.88,-409.35 7093.37,-1773.43l818.38 1637.08 2728.14 0 -1364.08 -2591.8c2728.15,-1500.42 4910.92,-4228.89 4228.89,-5729.31 -818.38,-1773.43 -3819.53,-1773.43 -7230.05,-818.38l272.69 409.35c2319.11,-409.35 3955.88,-272.68 4228.88,955.06 272.69,2319.11 -5183.61,4501.56 -7093.37,5047.26l1500.41 -3137.5 818.38 1773.43c818.37,-272.69 1500.41,-545.69 2182.78,-955.05l-1773.43 -3410.18 -136.34 -272.69 -272.69 -409.35 -136.34 -136.34 0 0 -272.68 -545.69 -1091.39 0 0 -0.65zm-1091.07 1773.1c-682.03,272.69 -1364.07,545.69 -1909.76,955.05 682.04,-272.68 1227.73,-545.69 1909.76,-682.04l136.34 -272.68 -136.34 -0.33z"/>
   <path class="fil0" d="M6684.35 1636.76c3001.15,-545.69 4365.23,955.05 2046.11,2864.82 136.34,-1637.08 -272.69,-2455.47 -2046.11,-2864.82z"/>
  </g>
 </g>
</svg>
