<?xml version="1.0" encoding="UTF-8"?>
<!DOCTYPE svg PUBLIC "-//W3C//DTD SVG 1.1//EN" "http://www.w3.org/Graphics/SVG/1.1/DTD/svg11.dtd">
<!-- Creator: CorelDRAW -->
<svg xmlns="http://www.w3.org/2000/svg" xml:space="preserve" width="841mm" height="1189mm" version="1.1" style="shape-rendering:geometricPrecision; text-rendering:geometricPrecision; image-rendering:optimizeQuality; fill-rule:evenodd; clip-rule:evenodd"
viewBox="0 0 84100 118900"
 xmlns:xlink="http://www.w3.org/1999/xlink"
 xmlns:xodm="http://www.corel.com/coreldraw/odm/2003">
 <defs>
  <style type="text/css">
   <![CDATA[
    .fil0 {fill:#29A2A7}
   ]]>
  </style>
 </defs>
 <g id="Camada_x0020_1">
  <metadata id="CorelCorpID_0Corel-Layer"/>
  <g id="_2493300015456">
   <path class="fil0" d="M25562.47 100253.58l-685.72 1508.51 0 0 0 137.08 -137.08 411.56 0 0 -3703.07 7954.79c3154.43,0 4251.71,-411.56 7131.66,-1783l822.8 1645.92 2742.87 0 -1371.44 -2605.79c2742.88,-1508.52 4937.43,-4251.72 4251.72,-5760.23 -822.8,-1783 -3840.15,-1783 -7269.07,-822.8l274.16 411.56c2331.63,-411.56 3977.23,-274.15 4251.71,960.21 274.16,2331.63 -5211.59,4525.86 -7131.66,5074.5l1508.51 -3154.43 822.8 1783c822.79,-274.16 1508.51,-548.64 2194.56,-960.2l-1783 -3428.59 -137.08 -274.16 -274.16 -411.56 -137.08 -137.08 0 0 -274.15 -548.64 -1097.28 0 0 -0.65zm-1096.96 1782.67c-685.71,274.16 -1371.43,548.64 -1920.07,960.2 685.72,-274.15 1234.36,-548.64 1920.07,-685.72l137.08 -274.15 -137.08 -0.33z"/>
   <path class="fil0" d="M27757.03 101899.17c3017.35,-548.64 4388.79,960.2 2057.15,2880.28 137.08,-1645.92 -274.16,-2468.72 -2057.15,-2880.28z"/>
  </g>
 </g>
</svg>
